<svg id="svg" version="1.1" width="500" height="500" xmlns="http://www.w3.org/2000/svg" xmlns:xlink="http://www.w3.org/1999/xlink" style="display: block;"><g id="svgg"><path id="path0" d="M0.000 53.600 L 0.000 107.200 53.600 107.200 L 107.200 107.200 107.200 53.600 L 107.200 0.000 53.600 0.000 L 0.000 0.000 0.000 53.600 M146.400 53.600 L 146.400 107.200 200.400 107.200 L 254.400 107.200 254.400 53.600 L 254.400 0.000 200.400 0.000 L 146.400 0.000 146.400 53.600 M292.800 53.600 L 292.800 107.200 346.400 107.200 L 400.000 107.200 400.000 53.600 L 400.000 0.000 346.400 0.000 L 292.800 0.000 292.800 53.600 M146.400 200.000 L 146.400 253.600 200.400 253.600 L 254.400 253.600 254.400 200.000 L 254.400 146.400 200.400 146.400 L 146.400 146.400 146.400 200.000 M146.400 346.394 L 146.400 400.000 200.406 400.000 L 254.411 400.000 254.206 346.600 L 254.000 293.200 200.200 292.994 L 146.400 292.789 146.400 346.394 " stroke="none" fill="#009688" fill-rule="evenodd"></path><path id="path1" d="M0.000 200.000 L 0.000 253.600 53.600 253.600 L 107.200 253.600 107.200 200.000 L 107.200 146.400 53.600 146.400 L 0.000 146.400 0.000 200.000 M292.800 200.000 L 292.800 253.600 346.400 253.600 L 400.000 253.600 400.000 200.000 L 400.000 146.400 346.400 146.400 L 292.800 146.400 292.800 200.000 M0.000 346.400 L 0.000 400.000 53.600 400.000 L 107.200 400.000 107.200 346.400 L 107.200 292.800 53.600 292.800 L 0.000 292.800 0.000 346.400 M292.800 346.400 L 292.800 400.000 346.400 400.000 L 400.000 400.000 400.000 346.400 L 400.000 292.800 346.400 292.800 L 292.800 292.800 292.800 346.400 " stroke="none" fill="#455a64" fill-rule="evenodd"></path></g></svg>